#!OML:ASF H:\GeneralSubjects\Female5\Project 1\Capture day 1\Session 1\Female5.ASF
:FULLY-SPECIFIED
:DEGREES
50
root 26.2223 16.0574 4.93598 -169.067 5.12813 -176.326
lowerback 4.94534 2.4484 2.64528
upperback -9.78509 4.48362 0.245949
thorax -13.2544 2.21681 -2.0062
lowerneck -11.5209 7.43279 10.4851
upperneck 27.2454 7.1259 -1.49216
head 11.2341 3.58199 -1.46404
rclavicle 1.57288e-014 2.38542e-015
rhumerus -53.9886 9.5194 -79.2668
rradius 34.962
rwrist -6.13031
rhand -25.9633 -18.8994
rfingers 7.12502
rthumb 0.581226 -48.8783
lclavicle 1.57288e-014 2.38542e-015
lhumerus -47.8925 -5.24401 79.8513
lradius 33.3203
lwrist -9.02715
lhand -21.8679 29.5423
lfingers 7.12502
lthumb 4.53636 59.4738
rfemur 0.863043 23.9402 34.0996
rtibia -9.36446
rfoot -16.3954 -21.8539
rtoes -24.1218
lfemur -6.8452 -26.7019 -25.3458
ltibia 8.61105
lfoot -35.9723 6.69121
ltoes -48.3682
51
root 26.1886 16.0658 4.9224 -168.725 5.10622 -176.43
lowerback 5.09704 2.54053 2.76278
upperback -9.83486 4.58208 -0.136567
thorax -13.3616 2.22045 -2.5163
lowerneck -11.3838 7.28942 11.0436
upperneck 26.9529 6.8618 -1.63667
head 11.1137 3.50807 -1.64736
rclavicle 1.49337e-014 5.76476e-015
rhumerus -54.5169 8.8004 -79.2173
rradius 35.1935
rwrist -6.16181
rhand -26.4173 -18.6639
rfingers 7.12502
rthumb 0.142668 -48.6436
lclavicle 1.49337e-014 5.76476e-015
lhumerus -48.0855 -6.26609 80.143
lradius 33.8403
lwrist -8.32034
lhand -22.0145 29.3344
lfingers 7.12502
lthumb 4.39476 59.2688
rfemur 0.260865 23.9111 33.5936
rtibia -9.06107
rfoot -16.6734 -21.6833
rtoes -23.8554
lfemur -7.49825 -26.276 -25.4386
ltibia 9.13028
lfoot -36.2909 7.67433
ltoes -49.768
52
root 26.16 16.0731 4.90844 -168.361 5.06425 -176.561
lowerback 5.2763 2.44565 2.55846
upperback -9.86251 4.40797 -0.320031
thorax -13.514 2.13811 -2.59036
lowerneck -11.1449 7.26637 11.5571
upperneck 26.5797 6.82016 -1.85108
head 10.9577 3.52191 -1.81886
rclavicle 5.7896e-015 5.56597e-015
rhumerus -54.9214 8.56405 -79.2494
rradius 35.3344
rwrist -6.01426
rhand -26.546 -18.521
rfingers 7.12502
rthumb 0.0183975 -48.5008
lclavicle 5.7896e-015 5.56597e-015
lhumerus -48.4167 -6.19516 80.1264
lradius 34.3316
lwrist -8.0034
lhand -22.0075 29.6541
lfingers 7.12502
lthumb 4.40154 59.5884
rfemur -0.393677 23.8875 33.1385
rtibia -8.62284
rfoot -17.006 -21.4168
rtoes -23.0471
lfemur -8.29725 -25.5747 -25.5088
ltibia 9.86664
lfoot -36.6955 7.1638
ltoes -49.3192
53
root 26.1377 16.0772 4.90117 -167.891 4.97196 -176.617
lowerback 5.42293 2.25853 2.0926
upperback -9.86113 4.10912 -0.1961
thorax -13.6592 2.04578 -2.15842
lowerneck -10.983 7.29679 11.5026
upperneck 26.2369 6.94069 -1.90536
head 10.8039 3.57307 -1.81565
rclavicle 3.81915e-014 1.98785e-014
rhumerus -55.156 8.83115 -79.0641
rradius 35.3903
rwrist -5.7632
rhand -26.2364 -18.5155
rfingers 7.12502
rthumb 0.317402 -48.495
lclavicle 3.81915e-014 1.98785e-014
lhumerus -48.7776 -5.45839 80.3164
lradius 34.7683
lwrist -7.86051
lhand -23.5002 29.2818
lfingers 7.12502
lthumb 2.96006 59.241
rfemur -1.26768 23.8691 32.7764
rtibia -7.98772
rfoot -17.2791 -21.3271
rtoes -23.2366
lfemur -9.59166 -24.2233 -25.3426
ltibia 11.1493
lfoot -36.677 6.71244
ltoes -49.2355
54
root 26.1084 16.0831 4.8997 -167.459 4.78453 -176.609
lowerback 5.75581 2.20899 1.89169
upperback -9.83398 4.02102 -0.111947
thorax -13.8601 2.01884 -1.9599
lowerneck -11.0614 7.20148 11.1305
upperneck 26.0238 6.89863 -1.85608
head 10.7127 3.53223 -1.74049
rclavicle 2.53202e-014 4.57205e-015
rhumerus -55.4835 8.85158 -78.7109
rradius 35.4175
rwrist -5.72382
rhand -26.1457 -18.5361
rfingers 7.12502
rthumb 0.405043 -48.5154
lclavicle 2.53202e-014 4.57205e-015
lhumerus -48.9966 -5.58033 81.1963
lradius 35.1374
lwrist -6.80292
lhand -24.5395 29.8884
lfingers 7.12502
lthumb 1.95631 59.8592
rfemur -2.54217 23.7186 32.2979
rtibia -6.85009
rfoot -17.2411 -21.4726
rtoes -25.1699
lfemur -11.1509 -22.7831 -25.1378
ltibia 12.8885
lfoot -36.4667 7.82743
ltoes -50.9909
55
root 26.0784 16.0823 4.90899 -166.958 4.49303 -176.438
lowerback 6.25365 2.21505 1.93738
upperback -9.83414 4.04063 -0.0732249
thorax -14.1762 2.01092 -1.97779
lowerneck -11.3437 7.07554 10.9579
upperneck 25.9506 6.78493 -1.96457
head 10.7248 3.46067 -1.75814
rclavicle -1.41137e-014 5.56597e-015
rhumerus -55.7782 8.45425 -78.2586
rradius 35.3
rwrist -5.64832
rhand -26.2874 -18.4102
rfingers 7.12502
rthumb 0.268198 -48.3898
lclavicle -1.41137e-014 5.56597e-015
lhumerus -49.1847 -6.27514 82.3694
lradius 35.6411
lwrist -5.04767
lhand -28.5019 29.5474
lfingers 7.12502
lthumb -1.8706 59.519
rfemur -4.32092 23.491 31.851
rtibia -5.15001
rfoot -17.1264 -21.6623
rtoes -27.1787
lfemur -13.1458 -21.0938 -24.6933
ltibia 15.1917
lfoot -36.4294 8.62488
ltoes -52.4905
56
root 26.0446 16.0735 4.92346 -166.404 4.14878 -176.105
lowerback 6.82162 2.22201 2.25394
upperback -9.82274 4.0964 -0.0476024
thorax -14.5053 1.98761 -2.1708
lowerneck -11.755 6.94608 10.7408
upperneck 25.8788 6.64015 -1.9653
head 10.7548 3.3851 -1.73016
rclavicle 8.22472e-015 -1.98785e-015
rhumerus -55.923 7.86795 -77.7292
rradius 35.0825
rwrist -5.62691
rhand -25.9402 -18.058
rfingers 7.12502
rthumb 0.603524 -48.0369
lclavicle 8.22472e-015 -1.98785e-015
lhumerus -49.241 -6.9955 83.3875
lradius 36.0565
lwrist -4.21715
lhand -27.6278 28.7909
lfingers 7.12502
lthumb -1.02641 58.7682
rfemur -6.4646 20.1499 31.7483
rtibia -3.06884
rfoot -16.4187 -18.3539
rtoes -25.1714
lfemur -15.3942 -19.334 -24.0916
ltibia 17.913
lfoot -37.0158 8.72591
ltoes -52.6759
57
root 26.0045 16.056 4.94075 -165.8 3.83595 -175.901
lowerback 7.38705 2.36332 2.63475
upperback -9.79861 4.33478 -0.119752
thorax -14.7965 2.03465 -2.54257
lowerneck -12.4033 6.64299 10.0598
upperneck 25.8505 6.26423 -1.67236
head 10.7993 3.19511 -1.54785
rclavicle -1.10822e-014 -5.96354e-015
rhumerus -56.0758 6.96842 -76.9154
rradius 34.9004
rwrist -5.65714
rhand -25.1831 -17.6318
rfingers 7.12502
rthumb 1.33469 -47.6074
lclavicle -1.10822e-014 -5.96354e-015
lhumerus -49.0571 -8.01679 84.5513
lradius 36.2917
lwrist -4.23419
lhand -26.0664 27.9004
lfingers 7.12502
lthumb 0.481581 57.8796
rfemur -9.1574 16.5406 31.5623
rtibia -0.0243548
rfoot -16.1912 -14.2862
rtoes -20.7618
lfemur -18.0142 -16.9838 -23.7387
ltibia 21.2263
lfoot -38.0775 9.63109
ltoes -53.234
58
root 25.9592 16.0193 4.96178 -165.227 3.41804 -175.411
lowerback 7.98456 1.92595 2.403
upperback -9.73694 3.76806 0.396105
thorax -15.1891 1.81271 -1.76334
lowerneck -12.6795 6.93235 10.6611
upperneck 25.8375 6.7096 -2.35002
head 10.9305 3.38712 -1.81668
rclavicle -1.12624e-014 -6.75868e-015
rhumerus -55.6611 7.64223 -76.7146
rradius 34.5881
rwrist -5.50005
rhand -24.5299 -17.4154
rfingers 7.12502
rthumb 1.96564 -47.3861
lclavicle -1.12624e-014 -6.75868e-015
lhumerus -49.2143 -7.40709 85.0948
lradius 36.8488
lwrist -4.32722
lhand -26.6832 28.4567
lfingers 7.12502
lthumb -0.114106 58.4364
rfemur -12.1927 13.0686 31.8819
rtibia 3.95924
rfoot -16.1367 -10.7757
rtoes -22.7327
lfemur -20.795 -14.7956 -23.2148
ltibia 25.0362
lfoot -38.2124 10.828
ltoes -54.6571
59
root 25.907 15.9641 4.98718 -164.563 3.25391 -175.323
lowerback 8.63865 1.78526 2.13821
upperback -9.73844 3.55343 0.508975
thorax -15.6456 1.73039 -1.48027
lowerneck -13.1854 7.01246 11.0092
upperneck 25.8476 6.81696 -2.73087
head 11.0714 3.43578 -1.97945
rclavicle -1.10388e-014 6.75868e-015
rhumerus -55.358 7.39038 -76.235
rradius 34.3221
rwrist -5.24459
rhand -24.1299 -17.2208
rfingers 7.12502
rthumb 2.35193 -47.1876
lclavicle -1.10388e-014 6.75868e-015
lhumerus -49.3166 -7.58637 85.8212
lradius 37.485
lwrist -4.30341
lhand -28.0272 27.9523
lfingers 7.12502
lthumb -1.41216 57.9274
rfemur -15.8386 10.4826 31.7375
rtibia 8.83717
rfoot -16.3213 -8.00232
rtoes -25.7446
lfemur -23.6669 -13.1511 -23.2798
ltibia 29.013
lfoot -38.0489 10.5022
ltoes -54.5105
60
root 25.8457 15.8772 5.00405 -164.186 3.06131 -174.629
lowerback 9.51799 1.65305 2.61051
upperback -9.60327 3.49532 0.875363
thorax -16.0561 1.65285 -1.35713
lowerneck -13.7467 7.08944 10.864
upperneck 25.7367 7.02876 -3.0016
head 11.156 3.50102 -2.00442
rclavicle -2.3233e-014 -2.64384e-014
rhumerus -54.9527 7.36229 -75.59
rradius 34.2049
rwrist -5.18276
rhand -24.0889 -16.9225
rfingers 7.12502
rthumb 2.39151 -46.8888
lclavicle -2.3233e-014 -2.64384e-014
lhumerus -49.4029 -7.65565 86.6886
lradius 38.0789
lwrist -4.43253
lhand -29.6546 28.1952
lfingers 7.12502
lthumb -2.98391 58.154
rfemur -19.1251 8.48229 32.3472
rtibia 13.9227
rfoot -16.5379 -5.42895
rtoes -23.5632
lfemur -26.125 -12.1277 -22.7826
ltibia 32.8965
lfoot -37.6648 9.35586
ltoes -53.5427
61
root 25.7962 15.7657 5.02532 -163.584 2.81085 -174.142
lowerback 10.1629 1.35811 2.53722
upperback -9.52523 3.17287 1.43748
thorax -16.4357 1.54582 -0.633536
lowerneck -14.1099 7.27321 10.5822
upperneck 25.3921 7.51538 -3.44859
head 11.1344 3.661 -2.0335
rclavicle 1.74173e-014 2.84262e-014
rhumerus -54.4392 8.17922 -75.1267
rradius 34.3162
rwrist -5.36474
rhand -24.3038 -16.731
rfingers 7.12502
rthumb 2.18396 -46.6996
lclavicle 1.74173e-014 2.84262e-014
lhumerus -49.0963 -6.94859 87.2886
lradius 38.8561
lwrist -5.2321
lhand -30.5723 28.0996
lfingers 7.12502
lthumb -3.87017 58.0442
rfemur -22.5872 7.39014 32.7729
rtibia 18.9306
rfoot -17.0808 -3.96133
rtoes -22.2891
lfemur -28.9409 -11.4998 -22.3293
ltibia 36.6962
lfoot -36.8885 8.05295
ltoes -53.224
62
root 25.7528 15.6194 5.04518 -162.968 2.69779 -173.907
lowerback 10.8444 1.14896 2.21425
upperback -9.562 2.90553 1.77169
thorax -16.9733 1.47919 -0.0336228
lowerneck -14.3109 7.42786 10.5966
upperneck 25.0796 7.88903 -3.93203
head 11.1049 3.78897 -2.1454
rclavicle 1.25824e-014 1.93318e-014
rhumerus -54.1621 8.84922 -74.9693
rradius 34.5423
rwrist -5.7468
rhand -24.5517 -16.6636
rfingers 7.12502
rthumb 1.94453 -46.6345
lclavicle 1.25824e-014 1.93318e-014
lhumerus -49.1849 -6.50853 87.5624
lradius 39.9934
lwrist -5.98646
lhand -31.466 27.8552
lfingers 7.12502
lthumb -4.73309 57.7823
rfemur -25.8623 7.20968 32.8911
rtibia 23.6007
rfoot -18.0876 -3.13871
rtoes -21.6092
lfemur -31.8161 -10.7525 -22.1441
ltibia 40.4227
lfoot -36.0549 6.81696
ltoes -53.4222
63
root 25.7072 15.4344 5.06489 -162.442 2.68677 -173.894
lowerback 11.4674 1.08462 1.84933
upperback -9.56336 2.76592 1.84706
thorax -17.4093 1.4523 0.27538
lowerneck -14.6154 7.45856 10.6422
upperneck 24.7384 8.00454 -4.18621
head 11.0576 3.83117 -2.21423
rclavicle 7.72309e-015 -1.4561e-014
rhumerus -53.9118 9.02646 -74.887
rradius 34.7926
rwrist -6.19061
rhand -24.6078 -16.5354
rfingers 7.12502
rthumb 1.89037 -46.5067
lclavicle 7.72309e-015 -1.4561e-014
lhumerus -48.9211 -6.49219 87.5218
lradius 41.1265
lwrist -6.29083
lhand -32.1993 28.0906
lfingers 7.12502
lthumb -5.44118 58.0007
rfemur -28.7306 7.72083 32.6747
rtibia 27.7015
rfoot -19.5149 -2.68239
rtoes -19.5408
lfemur -34.7649 -9.82439 -22.2787
ltibia 44.4626
lfoot -35.5114 5.41802
ltoes -53.4917
64
root 25.6618 15.2234 5.08199 -162.04 2.65508 -173.879
lowerback 12.1034 1.05932 1.42538
upperback -9.52482 2.6631 1.9574
thorax -17.8087 1.45397 0.652736
lowerneck -14.892 7.39729 10.4722
upperneck 24.1845 7.99273 -4.19094
head 10.8924 3.8314 -2.17633
rclavicle 9.30871e-015 1.55052e-014
rhumerus -53.5254 9.18887 -74.7847
rradius 34.8839
rwrist -6.66123
rhand -24.6849 -16.5748
rfingers 7.12502
rthumb 1.81589 -46.5468
lclavicle 9.30871e-015 1.55052e-014
lhumerus -48.3796 -6.32103 87.3132
lradius 42.1176
lwrist -6.47064
lhand -32.7317 28.4103
lfingers 7.12502
lthumb -5.95516 58.3066
rfemur -30.999 8.57665 32.4775
rtibia 31.0314
rfoot -21.1303 -2.95063
rtoes -20.2829
lfemur -37.7343 -8.76874 -22.493
ltibia 48.8795
lfoot -35.0011 3.09983
ltoes -52.9606
